<svg xmlns="http://www.w3.org/2000/svg" viewBox="0 0 934.29 970.77"><defs><style>.cls-1{fill:#fff;}</style></defs><title>Asset 2</title><g id="Layer_2" data-name="Layer 2"><g id="Layer_1-2" data-name="Layer 1"><path class="cls-1" d="M546.62,801.59H422.16l-29.53-78.08a221.52,221.52,0,0,1-51.22,44.06A224.08,224.08,0,0,1,302.09,787c-115.25,43.59-244-14.5-287.6-129.75s14.5-244,129.75-287.61a224.08,224.08,0,0,1,42.33-11.45l42.8,113.14a107.18,107.18,0,1,0,94,69.08L254.14,357.34,119,0H243.42Z"/><path class="cls-1" d="M387.67,169.18H512.13l29.53,78.08a221.52,221.52,0,0,1,51.22-44.06,224.08,224.08,0,0,1,39.32-19.44c115.25-43.59,244,14.5,287.6,129.75S905.3,557.53,790,601.12a224.08,224.08,0,0,1-42.33,11.45l-42.8-113.14a107.18,107.18,0,1,0-94-69.08l69.24,183.09L815.31,970.77H690.87Z"/></g></g></svg>